<svg width="36" height="35" viewBox="0 0 36 35" fill="none" xmlns="http://www.w3.org/2000/svg">
<mask id="mask0_5_6040" style="mask-type:luminance" maskUnits="userSpaceOnUse" x="1" y="0" width="34" height="35">
<path d="M35 0.969971H1V34.97H35V0.969971Z" fill="white"/>
</mask>
<g mask="url(#mask0_5_6040)">
<path d="M30.1539 13.9291H27.4432C26.5374 12.5991 25.3322 11.4873 23.9281 10.6943C22.3558 9.80641 20.5704 9.33716 18.765 9.33716H18C17.4451 9.33716 16.9953 9.78696 16.9953 10.3418V13.9291H5.8461C3.39815 13.9291 1.36964 15.754 1.04617 18.1145C1.04254 18.1373 1.03943 18.1601 1.03735 18.1835C1.01375 18.3778 1 18.5749 1 18.7754V22.6169C1 23.1717 1.4498 23.6215 2.00465 23.6215H5.51978C5.96672 25.3481 7.5379 26.6267 9.40221 26.6267C11.2665 26.6267 12.8377 25.3481 13.2846 23.6215H22.7154C23.1626 25.3481 24.7335 26.6267 26.5978 26.6267C28.4621 26.6267 30.033 25.3481 30.4802 23.6215H33.9953C34.5502 23.6215 35 23.1717 35 22.6169V18.7754C35 16.1031 32.826 13.9291 30.1539 13.9291ZM19.0047 11.3501C21.2251 11.4137 23.3312 12.3607 24.8588 13.9291H19.0047V11.3501ZM3.00931 19.274H4.56104C5.11589 19.274 5.56569 18.8242 5.56569 18.2693C5.56569 17.7145 5.11589 17.2647 4.56104 17.2647H3.44691C3.94989 16.4686 4.83704 15.9386 5.8461 15.9386H16.9953V21.6122H13.2846C12.8374 19.8857 11.2665 18.6068 9.40221 18.6068C7.5379 18.6068 5.96698 19.8857 5.51978 21.6122H3.00931V19.274ZM11.4027 22.6169C11.4027 23.7201 10.5054 24.6174 9.40221 24.6174C8.29898 24.6174 7.40172 23.7201 7.40172 22.6169C7.40172 21.5137 8.29898 20.6164 9.40221 20.6164C10.5054 20.6164 11.4027 21.5137 11.4027 22.6169ZM28.5983 22.6169C28.5983 23.7201 27.701 24.6174 26.5978 24.6174C25.4946 24.6174 24.5973 23.7201 24.5973 22.6169C24.5973 21.5137 25.4946 20.6164 26.5978 20.6164C27.701 20.6164 28.5983 21.5137 28.5983 22.6169ZM30.4802 21.6122C30.0333 19.8857 28.4621 18.6068 26.5978 18.6068C24.7335 18.6068 23.1623 19.8857 22.7154 21.6122H19.0047V15.9386H30.1539C31.1451 15.9386 32.019 16.4502 32.5264 17.2227H30.9715C30.4167 17.2227 29.9669 17.6725 29.9669 18.2273C29.9669 18.7822 30.4167 19.2322 30.9715 19.2322H32.9907V21.6122H30.4802Z" fill="#050B20"/>
</g>
</svg>
