<svg width="34" height="35" viewBox="0 0 34 35" fill="none" xmlns="http://www.w3.org/2000/svg">
<path d="M26.5625 14.7824H25.3194C25.1795 14.7833 25.0409 14.7565 24.9115 14.7036C24.782 14.6507 24.6643 14.5728 24.565 14.4743L21.7387 11.6481C21.0418 10.9511 20.2132 10.3996 19.3012 10.0257C18.3891 9.65174 17.4119 9.46283 16.4263 9.46992H7.4375C6.02854 9.46992 4.67728 10.0296 3.681 11.0259C2.68471 12.0222 2.125 13.3735 2.125 14.7824V20.0949C2.125 20.9403 2.46083 21.7511 3.0586 22.3489C3.65637 22.9466 4.46712 23.2824 5.3125 23.2824C5.3125 24.2687 5.7043 25.2146 6.4017 25.912C7.0991 26.6094 8.04498 27.0012 9.03125 27.0012C10.0175 27.0012 10.9634 26.6094 11.6608 25.912C12.3582 25.2146 12.75 24.2687 12.75 23.2824H20.2938C20.4112 24.1714 20.8478 24.9874 21.5221 25.5785C22.1965 26.1696 23.0626 26.4955 23.9594 26.4955C24.8561 26.4955 25.7223 26.1696 26.3966 25.5785C27.071 24.9874 27.5075 24.1714 27.625 23.2824H28.6875C29.5329 23.2824 30.3436 22.9466 30.9414 22.3489C31.5392 21.7511 31.875 20.9403 31.875 20.0949C31.875 18.686 31.3153 17.3347 30.319 16.3384C29.3227 15.3422 27.9715 14.7824 26.5625 14.7824ZM16.4794 11.5949C17.1775 11.5937 17.869 11.7301 18.5144 11.9962C19.1598 12.2624 19.7464 12.6532 20.2406 13.1462L21.8769 14.7824H8.755C8.55699 14.7838 8.36253 14.7298 8.19357 14.6266C8.0246 14.5233 7.88785 14.3749 7.79875 14.1981L6.56625 11.7331C6.84804 11.6434 7.14178 11.5968 7.4375 11.5949H16.4794ZM4.25 20.0949V14.7824C4.25058 14.1372 4.44694 13.5074 4.81313 12.9762L5.87563 15.1012C6.13626 15.6433 6.54495 16.1005 7.05446 16.4201C7.56398 16.7398 8.15353 16.9087 8.755 16.9074H14.875V21.1574H12.3781C12.0797 20.5219 11.6064 19.9844 11.0137 19.608C10.421 19.2315 9.7334 19.0316 9.03125 19.0316C8.3291 19.0316 7.64146 19.2315 7.04876 19.608C6.45607 19.9844 5.98282 20.5219 5.68437 21.1574H5.3125C5.03071 21.1574 4.76046 21.0455 4.5612 20.8463C4.36194 20.647 4.25 20.3767 4.25 20.0949ZM9.03125 24.3449C8.71604 24.3449 8.4079 24.2515 8.14581 24.0764C7.88372 23.9012 7.67944 23.6523 7.55882 23.3611C7.43819 23.0699 7.40663 22.7494 7.46812 22.4403C7.52962 22.1311 7.68141 21.8471 7.9043 21.6242C8.12719 21.4014 8.41117 21.2496 8.72032 21.1881C9.02948 21.1266 9.34993 21.1581 9.64115 21.2788C9.93237 21.3994 10.1813 21.6037 10.3564 21.8658C10.5315 22.1278 10.625 22.436 10.625 22.7512C10.625 23.1739 10.4571 23.5793 10.1582 23.8781C9.85932 24.177 9.45394 24.3449 9.03125 24.3449ZM23.9062 24.3449C23.591 24.3449 23.2829 24.2515 23.0208 24.0764C22.7587 23.9012 22.5544 23.6523 22.4338 23.3611C22.3132 23.0699 22.2816 22.7494 22.3431 22.4403C22.4046 22.1311 22.5564 21.8471 22.7793 21.6242C23.0022 21.4014 23.2862 21.2496 23.5953 21.1881C23.9045 21.1266 24.2249 21.1581 24.5162 21.2788C24.8074 21.3994 25.0563 21.6037 25.2314 21.8658C25.4065 22.1278 25.5 22.436 25.5 22.7512C25.5 23.1739 25.3321 23.5793 25.0332 23.8781C24.7343 24.177 24.3289 24.3449 23.9062 24.3449ZM28.6875 21.1574H27.2531C26.9547 20.5219 26.4814 19.9844 25.8887 19.608C25.296 19.2315 24.6084 19.0316 23.9062 19.0316C23.2041 19.0316 22.5165 19.2315 21.9238 19.608C21.3311 19.9844 20.8578 20.5219 20.5594 21.1574H17V16.9074H26.5625C27.0081 16.9098 27.4482 17.0056 27.8545 17.1886C28.2608 17.3717 28.6242 17.6378 28.9212 17.9699H28.6875C28.4057 17.9699 28.1355 18.0819 27.9362 18.2811C27.7369 18.4804 27.625 18.7507 27.625 19.0324C27.625 19.3142 27.7369 19.5845 27.9362 19.7838C28.1355 19.983 28.4057 20.0949 28.6875 20.0949H29.75C29.75 20.3767 29.6381 20.647 29.4388 20.8463C29.2395 21.0455 28.9693 21.1574 28.6875 21.1574Z" fill="#050B20"/>
</svg>
