<svg width="34" height="35" viewBox="0 0 34 35" fill="none" xmlns="http://www.w3.org/2000/svg">
<path d="M30.5394 16.7163L26.3033 15.0226L23.8414 9.27766C23.3378 8.10359 22.1882 7.34497 20.9111 7.34497H11.1658C9.75056 7.34497 8.48938 8.29591 8.1005 9.65697L6.63637 14.7825H4.25C3.07806 14.7825 2.125 15.7356 2.125 16.9075V23.2825C2.125 24.4544 3.07806 25.4075 4.25 25.4075H6.52588C7.00081 27.235 8.65088 28.595 10.625 28.595C12.5991 28.595 14.2492 27.235 14.7241 25.4075H19.2759C19.7508 27.235 21.4009 28.595 23.375 28.595C25.3491 28.595 26.9992 27.235 27.4741 25.4075H29.75C30.9219 25.4075 31.875 24.4544 31.875 23.2825V18.6893C31.875 17.8149 31.3512 17.0403 30.5394 16.7163ZM10.625 26.47C9.45306 26.47 8.5 25.5169 8.5 24.345C8.5 23.1731 9.45306 22.22 10.625 22.22C11.7969 22.22 12.75 23.1731 12.75 24.345C12.75 25.5169 11.7969 26.47 10.625 26.47ZM23.375 26.47C22.2031 26.47 21.25 25.5169 21.25 24.345C21.25 23.1731 22.2031 22.22 23.375 22.22C24.5469 22.22 25.5 23.1731 25.5 24.345C25.5 25.5169 24.5469 26.47 23.375 26.47ZM29.75 23.2825H27.4741C26.9992 21.455 25.3491 20.095 23.375 20.095C21.4009 20.095 19.7508 21.455 19.2759 23.2825H14.7241C14.2492 21.455 12.5991 20.095 10.625 20.095C8.65088 20.095 7.00081 21.455 6.52588 23.2825H4.25V16.9075H7.4375C7.91138 16.9075 8.32894 16.593 8.45856 16.1372L10.1426 10.2413C10.2733 9.78659 10.693 9.46997 11.1658 9.46997H20.9111C21.3361 9.46997 21.7196 9.72284 21.8875 10.1138L24.5225 16.2636C24.633 16.5229 24.8423 16.7269 25.1037 16.8321L29.75 18.6893V23.2825Z" fill="#050B20"/>
<path d="M15.3481 19.9165C14.8604 19.5914 14.7287 18.9316 15.0538 18.4428L16.077 16.9075H14.8753C14.4833 16.9075 14.1231 16.6918 13.9382 16.3465C13.7533 16.0012 13.7735 15.5815 13.9913 15.2564L16.1163 12.0689C16.4414 11.5802 17.1013 11.4484 17.59 11.7746C18.0777 12.0997 18.2094 12.7595 17.8843 13.2483L16.8611 14.7825H18.0628C18.4549 14.7825 18.8151 14.9982 18.9999 15.3435C19.1848 15.6888 19.1646 16.1085 18.9468 16.4337L16.8218 19.6212C16.4956 20.111 15.8348 20.2417 15.3481 19.9165Z" fill="#050B20"/>
</svg>
