<svg width="34" height="35" viewBox="0 0 34 35" fill="none" xmlns="http://www.w3.org/2000/svg">
<mask id="mask0_5_6029" style="mask-type:luminance" maskUnits="userSpaceOnUse" x="0" y="0" width="34" height="35">
<path d="M34 0.969971H0V34.97H34V0.969971Z" fill="white"/>
</mask>
<g mask="url(#mask0_5_6029)">
<path d="M30.759 16.5573L24.8898 15.5786C24.5466 15.0212 23.8644 14.0129 22.8725 13.0027C20.8927 10.9864 18.6133 9.92065 16.2806 9.92065H6.7225C5.16993 9.92065 3.73044 10.7601 2.96577 12.1114L0.331898 16.7662C0.327648 16.7737 0.324461 16.7815 0.32041 16.7891C0.116676 17.1537 0 17.5733 0 18.0199V22.9248C0 23.4749 0.445984 23.9208 0.99609 23.9208H4.18632C4.65455 25.146 5.848 26.0194 7.24339 26.0194C8.63879 26.0194 9.8322 25.146 10.3005 23.9208H22.672C23.1402 25.146 24.3336 26.0194 25.729 26.0194C27.1244 26.0194 28.3178 25.146 28.786 23.9208H33.0039C33.554 23.9208 34 23.4749 34 22.9248V20.2878C34 18.4192 32.6077 16.8182 30.759 16.5573ZM22.3976 15.4882H15.222V11.9129H16.2806C19.104 11.9129 21.2363 14.0002 22.3976 15.4882ZM8.57371 11.9129H13.2299V15.4882H8.57371V11.9129ZM4.69964 13.0925C5.08811 12.406 5.80012 11.9653 6.58152 11.9177V15.4882H3.34402L4.69964 13.0925ZM7.24339 24.0272C6.53929 24.0272 5.96647 23.464 5.96647 22.7716C5.96647 22.0793 6.53929 21.516 7.24339 21.516C7.9475 21.516 8.52032 22.0793 8.52032 22.7716C8.52032 23.464 7.9475 24.0272 7.24339 24.0272ZM25.729 24.0272C25.0248 24.0272 24.452 23.464 24.452 22.7716C24.452 22.0793 25.0249 21.516 25.729 21.516C26.4331 21.516 27.0059 22.0793 27.0059 22.7716C27.0059 23.464 26.4331 24.0272 25.729 24.0272ZM28.8857 21.9286C28.5111 20.5453 27.2381 19.5238 25.729 19.5238C24.2198 19.5238 22.9469 20.5453 22.5721 21.9286H10.4001C10.0255 20.5453 8.75254 19.5238 7.24339 19.5238C5.73425 19.5238 4.4613 20.5453 4.08657 21.9286H1.99219V18.0199C1.99219 17.7224 2.23417 17.4804 2.53167 17.4804H24.183L30.4445 18.5246C30.4541 18.5262 30.4637 18.5277 30.4734 18.529C30.6428 18.5522 30.804 18.5995 30.9541 18.6667C30.5374 18.7859 30.232 19.1688 30.232 19.6238C30.232 20.1739 30.678 20.6199 31.2281 20.6199H32.0078V21.9287L28.8857 21.9286Z" fill="#050B20"/>
</g>
</svg>
