<svg width="34" height="35" viewBox="0 0 34 35" fill="none" xmlns="http://www.w3.org/2000/svg">
<mask id="mask0_5_6019" style="mask-type:luminance" maskUnits="userSpaceOnUse" x="0" y="0" width="34" height="35">
<path d="M34 0.969971H0V34.97H34V0.969971Z" fill="white"/>
</mask>
<g mask="url(#mask0_5_6019)">
<path d="M32.8913 22.4048H31.7826V16.8614C31.7826 15.0273 30.2905 13.5353 28.4565 13.5353H24.8209L23.3616 9.15727C22.908 7.79701 21.6399 6.88306 20.2061 6.88306C20.0334 6.88306 8.04731 6.88306 7.76083 6.88306C6.31543 6.88306 5.08313 7.81002 4.62546 9.10043H3.32609C1.49208 9.10043 0 10.5925 0 12.4265V16.8614C0 18.6954 1.49208 20.1874 3.32609 20.1874H4.43481V22.4048H3.32609C2.71382 22.4048 2.21737 22.9012 2.21737 23.5135C2.21737 24.1259 2.71376 24.6223 3.32609 24.6223C4.36442 24.6223 5.6104 24.6223 6.65218 24.6223C6.65218 27.0676 8.64164 29.0571 11.087 29.0571C13.5323 29.0571 15.5218 27.0676 15.5218 24.6223H20.6957C20.6957 27.0676 22.6852 29.0571 25.1305 29.0571C27.5759 29.0571 29.5653 27.0676 29.5653 24.6223C30.6074 24.6223 31.8538 24.6223 32.8914 24.6223C33.5037 24.6223 34.0001 24.1259 34.0001 23.5135C34.0001 22.9012 33.5036 22.4048 32.8913 22.4048ZM4.43481 17.97H3.32609C2.71475 17.97 2.21737 17.4726 2.21737 16.8613V12.4265C2.21737 11.8151 2.71475 11.3178 3.32609 11.3178H4.43481C4.43481 12.0242 4.43481 17.285 4.43481 17.97ZM15.5217 9.10043H17.3696H20.2061C20.6841 9.10043 21.1068 9.4051 21.2579 9.85845L22.4834 13.5352H15.5217V9.10043ZM6.65218 10.2091C6.65218 9.59774 7.14956 9.10036 7.7609 9.10036H13.3044V13.5352H6.65218V10.2091ZM11.087 26.8396C9.86432 26.8396 8.86962 25.8449 8.86962 24.6222C8.86962 23.3995 9.86432 22.4048 11.087 22.4048C12.3097 22.4048 13.3044 23.3995 13.3044 24.6222C13.3044 25.8449 12.3097 26.8396 11.087 26.8396ZM25.1304 26.8396C23.9078 26.8396 22.9131 25.8449 22.9131 24.6222C22.9131 23.3995 23.9078 22.4048 25.1304 22.4048C26.3531 22.4048 27.3478 23.3995 27.3478 24.6222C27.3478 25.8449 26.3531 26.8396 25.1304 26.8396ZM29.5652 22.4048H28.9686C28.2005 21.0806 26.7683 20.1874 25.1304 20.1874C23.4926 20.1874 22.0604 21.0806 21.2923 22.4048H14.9251C14.1571 21.0806 12.7248 20.1874 11.087 20.1874C9.44914 20.1874 8.01689 21.0806 7.24884 22.4048H6.65225V19.0787V15.7526C8.46022 15.7526 27.2694 15.7526 28.4566 15.7526C29.0679 15.7526 29.5653 16.25 29.5653 16.8614L29.5652 22.4048Z" fill="#050B20"/>
<path d="M18.8476 17.97H16.6302C16.0179 17.97 15.5215 18.4664 15.5215 19.0787C15.5215 19.691 16.0179 20.1874 16.6302 20.1874H18.8476C19.4598 20.1874 19.9563 19.6911 19.9563 19.0787C19.9563 18.4664 19.4599 17.97 18.8476 17.97Z" fill="#050B20"/>
</g>
</svg>
