<svg width="36" height="35" viewBox="0 0 36 35" fill="none" xmlns="http://www.w3.org/2000/svg">
<mask id="mask0_5_6087" style="mask-type:luminance" maskUnits="userSpaceOnUse" x="1" y="0" width="34" height="35">
<path d="M35 0.969971H1V34.97H35V0.969971Z" fill="white"/>
</mask>
<g mask="url(#mask0_5_6087)">
<path d="M32.7415 15.1259L30.7088 9.08817C30.1364 7.38884 28.5473 6.24731 26.7543 6.24731H23.2242C22.3084 6.24731 21.564 6.99239 21.564 7.90747V15.1245H1.99609C1.44625 15.1245 1 15.5708 1 16.1206V23.7241C1 25.0058 2.04258 26.0484 3.32422 26.0484H5.0727C5.52957 28.1302 7.38895 29.6927 9.60559 29.6927C11.8222 29.6927 13.6809 28.1302 14.1378 26.0484H23.8491C24.3059 28.1302 26.1646 29.6927 28.3813 29.6927C30.6026 29.6927 32.4646 28.1236 32.9168 26.0357C34.0856 25.9149 35 24.9241 35 23.7241V17.4487C35 16.189 33.9926 15.1604 32.7415 15.1259ZM26.7543 8.2395C27.6913 8.2395 28.5221 8.83583 28.8202 9.72368L30.6391 15.1245L23.5562 15.1246V8.2395H26.7543ZM2.99219 23.7241V17.1167H21.564V24.0562H14.1378C13.6809 21.975 11.8222 20.4125 9.60559 20.4125C7.38895 20.4125 5.52957 21.975 5.0727 24.0562H3.32422C3.14094 24.0562 2.99219 23.9074 2.99219 23.7241ZM9.60559 27.7005C7.72848 27.7005 6.44445 25.7891 7.15188 24.0562C7.54633 23.0886 8.49727 22.4046 9.60559 22.4046C10.7139 22.4046 11.6642 23.0886 12.0586 24.0562C12.7642 25.7847 11.4869 27.7005 9.60559 27.7005ZM23.5562 17.1168C24.3715 17.1168 31.6649 17.1167 32.6758 17.1167C32.8591 17.1167 33.0078 17.2655 33.0078 17.4487C32.964 23.9121 33.1103 23.7861 32.8949 23.9725C32.4068 21.9332 30.568 20.4125 28.3813 20.4125C26.1646 20.4125 24.3059 21.975 23.8491 24.0562H23.5562V17.1168ZM25.9282 26.0484C25.2208 24.3152 26.5055 22.4046 28.3813 22.4046C30.2492 22.4046 31.5465 24.3053 30.835 26.0484C29.9394 28.2467 26.8241 28.2474 25.9282 26.0484Z" fill="#050B20"/>
</g>
</svg>
